{
    "asset" : {
        "generator" : "Khronos glTF Blender I/O v1.1.46",
        "version" : "2.0"
    },
    "scene" : 0,
    "scenes" : [
        {
            "name" : "Scene",
            "nodes" : [
                0
            ]
        }
    ],
    "nodes" : [
        {
            "mesh" : 0,
            "name" : "Cube",
            "rotation" : [
                0.7071068286895752,
                0,
                0,
                0.7071067094802856
            ],
            "scale" : [
                0.9000000357627869,
                0.09000002592802048,
                0.9000001549720764
            ],
            "translation" : [
                0.10000000149011612,
                -3.7863835586904315e-06,
                6.000000953674316
            ]
        }
    ],
    "materials" : [
        {
            "doubleSided" : true,
            "emissiveFactor" : [
                0,
                0,
                0
            ],
            "name" : "Doors",
            "pbrMetallicRoughness" : {
                "baseColorFactor" : [
                    0.6399999856948853,
                    0.6399999856948853,
                    0.6399999856948853,
                    1
                ],
                "metallicFactor" : 0,
                "roughnessFactor" : 0.5
            }
        },
        {
            "doubleSided" : true,
            "emissiveFactor" : [
                0,
                0,
                0
            ],
            "name" : "Door_Handles",
            "pbrMetallicRoughness" : {
                "baseColorFactor" : [
                    0.20000000298023224,
                    0.20000000298023224,
                    0.20000000298023224,
                    1
                ],
                "metallicFactor" : 0,
                "roughnessFactor" : 0.5
            }
        }
    ],
    "meshes" : [
        {
            "name" : "Cube.001",
            "primitives" : [
                {
                    "attributes" : {
                        "POSITION" : 0,
                        "NORMAL" : 1
                    },
                    "indices" : 2,
                    "material" : 0
                },
                {
                    "attributes" : {
                        "POSITION" : 3,
                        "NORMAL" : 4
                    },
                    "indices" : 5,
                    "material" : 1
                }
            ]
        }
    ],
    "accessors" : [
        {
            "bufferView" : 0,
            "componentType" : 5126,
            "count" : 928,
            "max" : [
                2,
                1,
                0
            ],
            "min" : [
                0,
                -1,
                -4.888888835906982
            ],
            "type" : "VEC3"
        },
        {
            "bufferView" : 1,
            "componentType" : 5126,
            "count" : 928,
            "type" : "VEC3"
        },
        {
            "bufferView" : 2,
            "componentType" : 5123,
            "count" : 1404,
            "type" : "SCALAR"
        },
        {
            "bufferView" : 3,
            "componentType" : 5126,
            "count" : 1538,
            "max" : [
                1.8639440536499023,
                3.405564069747925,
                -1.8401210308074951
            ],
            "min" : [
                1.6313070058822632,
                -3.405564069747925,
                -2.072758913040161
            ],
            "type" : "VEC3"
        },
        {
            "bufferView" : 4,
            "componentType" : 5126,
            "count" : 1538,
            "type" : "VEC3"
        },
        {
            "bufferView" : 5,
            "componentType" : 5123,
            "count" : 6336,
            "type" : "SCALAR"
        }
    ],
    "bufferViews" : [
        {
            "buffer" : 0,
            "byteLength" : 11136,
            "byteOffset" : 0
        },
        {
            "buffer" : 0,
            "byteLength" : 11136,
            "byteOffset" : 11136
        },
        {
            "buffer" : 0,
            "byteLength" : 2808,
            "byteOffset" : 22272
        },
        {
            "buffer" : 0,
            "byteLength" : 18456,
            "byteOffset" : 25080
        },
        {
            "buffer" : 0,
            "byteLength" : 18456,
            "byteOffset" : 43536
        },
        {
            "buffer" : 0,
            "byteLength" : 12672,
            "byteOffset" : 61992
        }
    ],
    "buffers" : [
        {
            "byteLength" : 74664,
            "uri" : "untitled.bin"
        }
    ]
}
