{
    "asset" : {
        "generator" : "Khronos glTF Blender I/O v1.1.46",
        "version" : "2.0"
    },
    "scene" : 0,
    "scenes" : [
        {
            "name" : "Scene",
            "nodes" : [
                0,
                22
            ]
        }
    ],
    "nodes" : [
        {
            "name" : "Object_3"
        },
        {
            "mesh" : 0,
            "name" : "Cube_Colore_0"
        },
        {
            "children" : [
                1
            ],
            "name" : "Cube",
            "rotation" : [
                -0.7071068286895752,
                0,
                0,
                0.7071067690849304
            ],
            "scale" : [
                457.1499938964844,
                457.1499938964844,
                457.1499938964844
            ],
            "translation" : [
                -1598.9410400390625,
                -2303.336181640625,
                0
            ]
        },
        {
            "mesh" : 1,
            "name" : "Cube.001_Colore_0"
        },
        {
            "children" : [
                3
            ],
            "name" : "Cube.001",
            "rotation" : [
                -0.7071068286895752,
                0,
                0,
                0.7071067690849304
            ],
            "scale" : [
                457.1499938964844,
                457.1499938964844,
                457.1499938964844
            ],
            "translation" : [
                -1598.9410400390625,
                -2303.336181640625,
                0
            ]
        },
        {
            "mesh" : 2,
            "name" : "Cube.002_Colore_0"
        },
        {
            "children" : [
                5
            ],
            "name" : "Cube.002",
            "rotation" : [
                -0.7071068286895752,
                0,
                0,
                0.7071067690849304
            ],
            "scale" : [
                457.1499938964844,
                457.1499938964844,
                457.1499938964844
            ],
            "translation" : [
                -1341.547607421875,
                -2373.110107421875,
                -489.76336669921875
            ]
        },
        {
            "mesh" : 3,
            "name" : "Cube.003_Colore_0"
        },
        {
            "children" : [
                7
            ],
            "name" : "Cube.003",
            "rotation" : [
                -0.7071068286895752,
                0,
                0,
                0.7071067690849304
            ],
            "scale" : [
                457.1499938964844,
                457.1499938964844,
                457.1499938964844
            ],
            "translation" : [
                -1598.9410400390625,
                -1943.2498779296875,
                -509.552001953125
            ]
        },
        {
            "mesh" : 4,
            "name" : "Cube.005_Colore_0"
        },
        {
            "children" : [
                9
            ],
            "name" : "Cube.005",
            "rotation" : [
                -0.7071068286895752,
                0,
                0,
                0.7071067690849304
            ],
            "scale" : [
                457.1499938964844,
                457.1499938964844,
                457.1499938964844
            ],
            "translation" : [
                -1233.2210693359375,
                -2303.336181640625,
                0
            ]
        },
        {
            "mesh" : 5,
            "name" : "Cube.039_Colore_0"
        },
        {
            "children" : [
                11
            ],
            "name" : "Cube.039",
            "rotation" : [
                -0.7071068286895752,
                0,
                0,
                0.7071067690849304
            ],
            "scale" : [
                457.1499938964844,
                457.1499938964844,
                457.1499938964844
            ],
            "translation" : [
                -1598.9410400390625,
                -2303.336181640625,
                0
            ]
        },
        {
            "mesh" : 6,
            "name" : "Cube.040_Colore_0"
        },
        {
            "children" : [
                13
            ],
            "name" : "Cube.040",
            "rotation" : [
                -0.7071068286895752,
                0,
                0,
                0.7071067690849304
            ],
            "scale" : [
                457.1499938964844,
                457.1499938964844,
                457.1499938964844
            ],
            "translation" : [
                -1598.9410400390625,
                -2303.336181640625,
                0
            ]
        },
        {
            "mesh" : 7,
            "name" : "Cube.041_Colore_0"
        },
        {
            "children" : [
                15
            ],
            "name" : "Cube.041",
            "rotation" : [
                -0.7071068286895752,
                0,
                0,
                0.7071067690849304
            ],
            "scale" : [
                457.1499938964844,
                457.1499938964844,
                457.1499938964844
            ],
            "translation" : [
                -1598.9410400390625,
                -2303.336181640625,
                0
            ]
        },
        {
            "mesh" : 8,
            "name" : "Text_Colore_0"
        },
        {
            "children" : [
                17
            ],
            "name" : "Text",
            "scale" : [
                91.42999267578125,
                91.42999267578125,
                91.42999267578125
            ],
            "translation" : [
                -1752.8902587890625,
                -1933.3167724609375,
                -522.2384643554688
            ]
        },
        {
            "children" : [
                2,
                4,
                6,
                8,
                10,
                12,
                14,
                16,
                18
            ],
            "name" : "RootNode"
        },
        {
            "children" : [
                19
            ],
            "name" : "32dab9990df64e77a424a7891bcd8416.fbx",
            "rotation" : [
                0.7071068286895752,
                0,
                0,
                0.7071068286895752
            ]
        },
        {
            "children" : [
                20
            ],
            "name" : "RootNode (model correction matrix)"
        },
        {
            "children" : [
                21
            ],
            "name" : "RootNode (gltf orientation matrix)",
            "scale" : [
                0.10000000149011612,
                0.10000000149011612,
                0.10000000149011612
            ]
        }
    ],
    "materials" : [
        {
            "emissiveFactor" : [
                0,
                0,
                0
            ],
            "name" : "Colore",
            "pbrMetallicRoughness" : {
                "baseColorTexture" : {
                    "index" : 0,
                    "texCoord" : 0
                },
                "metallicFactor" : 0,
                "roughnessFactor" : 1
            }
        }
    ],
    "meshes" : [
        {
            "name" : "Cube_Colore_0",
            "primitives" : [
                {
                    "attributes" : {
                        "POSITION" : 0,
                        "NORMAL" : 1,
                        "TEXCOORD_0" : 2
                    },
                    "indices" : 3,
                    "material" : 0
                }
            ]
        },
        {
            "name" : "Cube.001_Colore_0",
            "primitives" : [
                {
                    "attributes" : {
                        "POSITION" : 4,
                        "NORMAL" : 5,
                        "TEXCOORD_0" : 6
                    },
                    "indices" : 7,
                    "material" : 0
                }
            ]
        },
        {
            "name" : "Cube.002_Colore_0",
            "primitives" : [
                {
                    "attributes" : {
                        "POSITION" : 8,
                        "NORMAL" : 9,
                        "TEXCOORD_0" : 10
                    },
                    "indices" : 11,
                    "material" : 0
                }
            ]
        },
        {
            "name" : "Cube.003_Colore_0",
            "primitives" : [
                {
                    "attributes" : {
                        "POSITION" : 12,
                        "NORMAL" : 13,
                        "TEXCOORD_0" : 14
                    },
                    "indices" : 15,
                    "material" : 0
                }
            ]
        },
        {
            "name" : "Cube.005_Colore_0",
            "primitives" : [
                {
                    "attributes" : {
                        "POSITION" : 16,
                        "NORMAL" : 17,
                        "TEXCOORD_0" : 18
                    },
                    "indices" : 19,
                    "material" : 0
                }
            ]
        },
        {
            "name" : "Cube.039_Colore_0",
            "primitives" : [
                {
                    "attributes" : {
                        "POSITION" : 20,
                        "NORMAL" : 21,
                        "TEXCOORD_0" : 22
                    },
                    "indices" : 23,
                    "material" : 0
                }
            ]
        },
        {
            "name" : "Cube.040_Colore_0",
            "primitives" : [
                {
                    "attributes" : {
                        "POSITION" : 24,
                        "NORMAL" : 25,
                        "TEXCOORD_0" : 26
                    },
                    "indices" : 27,
                    "material" : 0
                }
            ]
        },
        {
            "name" : "Cube.041_Colore_0",
            "primitives" : [
                {
                    "attributes" : {
                        "POSITION" : 28,
                        "NORMAL" : 29,
                        "TEXCOORD_0" : 30
                    },
                    "indices" : 31,
                    "material" : 0
                }
            ]
        },
        {
            "name" : "Text_Colore_0",
            "primitives" : [
                {
                    "attributes" : {
                        "POSITION" : 32,
                        "NORMAL" : 33,
                        "TEXCOORD_0" : 34
                    },
                    "indices" : 35,
                    "material" : 0
                }
            ]
        }
    ],
    "textures" : [
        {
            "source" : 0
        }
    ],
    "images" : [
        {
            "mimeType" : "image/png",
            "name" : "Colore_baseColor",
            "uri" : "Colore_baseColor.png"
        }
    ],
    "accessors" : [
        {
            "bufferView" : 0,
            "componentType" : 5126,
            "count" : 1198,
            "max" : [
                0.8336138129234314,
                1.1146265268325806,
                0.8325554132461548
            ],
            "min" : [
                -0.8336138129234314,
                0,
                -0.8025554418563843
            ],
            "type" : "VEC3"
        },
        {
            "bufferView" : 1,
            "componentType" : 5126,
            "count" : 1198,
            "type" : "VEC3"
        },
        {
            "bufferView" : 2,
            "componentType" : 5126,
            "count" : 1198,
            "type" : "VEC2"
        },
        {
            "bufferView" : 3,
            "componentType" : 5123,
            "count" : 1524,
            "type" : "SCALAR"
        },
        {
            "bufferView" : 4,
            "componentType" : 5126,
            "count" : 1520,
            "max" : [
                0.8036137819290161,
                1.071340799331665,
                0.8025553822517395
            ],
            "min" : [
                -0.8036138415336609,
                0.39134079217910767,
                0.7925553917884827
            ],
            "type" : "VEC3"
        },
        {
            "bufferView" : 5,
            "componentType" : 5126,
            "count" : 1520,
            "type" : "VEC3"
        },
        {
            "bufferView" : 6,
            "componentType" : 5126,
            "count" : 1520,
            "type" : "VEC2"
        },
        {
            "bufferView" : 7,
            "componentType" : 5123,
            "count" : 1968,
            "type" : "SCALAR"
        },
        {
            "bufferView" : 8,
            "componentType" : 5126,
            "count" : 108,
            "max" : [
                0.10568633675575256,
                0.030743107199668884,
                0.10568633675575256
            ],
            "min" : [
                -0.10568633675575256,
                1.6763806343078613e-08,
                -0.4126863479614258
            ],
            "type" : "VEC3"
        },
        {
            "bufferView" : 9,
            "componentType" : 5126,
            "count" : 108,
            "type" : "VEC3"
        },
        {
            "bufferView" : 10,
            "componentType" : 5126,
            "count" : 108,
            "type" : "VEC2"
        },
        {
            "bufferView" : 11,
            "componentType" : 5123,
            "count" : 156,
            "type" : "SCALAR"
        },
        {
            "bufferView" : 12,
            "componentType" : 5126,
            "count" : 24,
            "max" : [
                0.8025904893875122,
                0.20000001788139343,
                0.015474393963813782
            ],
            "min" : [
                -0.8025904893875122,
                -2.2351741790771484e-08,
                -0.015474498271942139
            ],
            "type" : "VEC3"
        },
        {
            "bufferView" : 13,
            "componentType" : 5126,
            "count" : 24,
            "type" : "VEC3"
        },
        {
            "bufferView" : 14,
            "componentType" : 5126,
            "count" : 24,
            "type" : "VEC2"
        },
        {
            "bufferView" : 15,
            "componentType" : 5123,
            "count" : 30,
            "type" : "SCALAR"
        },
        {
            "bufferView" : 16,
            "componentType" : 5126,
            "count" : 872,
            "max" : [
                1.2710334062576294,
                0.5397459864616394,
                0.8220556974411011
            ],
            "min" : [
                0.0036138296127319336,
                0,
                -0.3972102701663971
            ],
            "type" : "VEC3"
        },
        {
            "bufferView" : 17,
            "componentType" : 5126,
            "count" : 872,
            "type" : "VEC3"
        },
        {
            "bufferView" : 18,
            "componentType" : 5126,
            "count" : 872,
            "type" : "VEC2"
        },
        {
            "bufferView" : 19,
            "componentType" : 5123,
            "count" : 1080,
            "type" : "SCALAR"
        },
        {
            "bufferView" : 20,
            "componentType" : 5126,
            "count" : 662,
            "max" : [
                0.8036138415336609,
                1.071340799331665,
                -0.7925553917884827
            ],
            "min" : [
                -0.8036138415336609,
                0,
                -0.8025554418563843
            ],
            "type" : "VEC3"
        },
        {
            "bufferView" : 21,
            "componentType" : 5126,
            "count" : 662,
            "type" : "VEC3"
        },
        {
            "bufferView" : 22,
            "componentType" : 5126,
            "count" : 662,
            "type" : "VEC2"
        },
        {
            "bufferView" : 23,
            "componentType" : 5123,
            "count" : 882,
            "type" : "SCALAR"
        },
        {
            "bufferView" : 24,
            "componentType" : 5126,
            "count" : 219,
            "max" : [
                -0.793613851070404,
                1.071340799331665,
                0.48512667417526245
            ],
            "min" : [
                -0.8036138415336609,
                0.39134079217910767,
                -0.8025553822517395
            ],
            "type" : "VEC3"
        },
        {
            "bufferView" : 25,
            "componentType" : 5126,
            "count" : 219,
            "type" : "VEC3"
        },
        {
            "bufferView" : 26,
            "componentType" : 5126,
            "count" : 219,
            "type" : "VEC2"
        },
        {
            "bufferView" : 27,
            "componentType" : 5123,
            "count" : 324,
            "type" : "SCALAR"
        },
        {
            "bufferView" : 28,
            "componentType" : 5126,
            "count" : 84,
            "max" : [
                -0.793613851070404,
                1.071340799331665,
                0.8025553822517395
            ],
            "min" : [
                -0.8036138415336609,
                0.39134079217910767,
                0.48512667417526245
            ],
            "type" : "VEC3"
        },
        {
            "bufferView" : 29,
            "componentType" : 5126,
            "count" : 84,
            "type" : "VEC3"
        },
        {
            "bufferView" : 30,
            "componentType" : 5126,
            "count" : 84,
            "type" : "VEC2"
        },
        {
            "bufferView" : 31,
            "componentType" : 5123,
            "count" : 108,
            "type" : "SCALAR"
        },
        {
            "bufferView" : 32,
            "componentType" : 5126,
            "count" : 2672,
            "max" : [
                3.251999855041504,
                0.03200000151991844,
                0.009000000543892384
            ],
            "min" : [
                0.07000000029802322,
                -0.03200000151991844,
                -0.6910000443458557
            ],
            "type" : "VEC3"
        },
        {
            "bufferView" : 33,
            "componentType" : 5126,
            "count" : 2672,
            "type" : "VEC3"
        },
        {
            "bufferView" : 34,
            "componentType" : 5126,
            "count" : 2672,
            "type" : "VEC2"
        },
        {
            "bufferView" : 35,
            "componentType" : 5123,
            "count" : 3216,
            "type" : "SCALAR"
        }
    ],
    "bufferViews" : [
        {
            "buffer" : 0,
            "byteLength" : 14376,
            "byteOffset" : 0
        },
        {
            "buffer" : 0,
            "byteLength" : 14376,
            "byteOffset" : 14376
        },
        {
            "buffer" : 0,
            "byteLength" : 9584,
            "byteOffset" : 28752
        },
        {
            "buffer" : 0,
            "byteLength" : 3048,
            "byteOffset" : 38336
        },
        {
            "buffer" : 0,
            "byteLength" : 18240,
            "byteOffset" : 41384
        },
        {
            "buffer" : 0,
            "byteLength" : 18240,
            "byteOffset" : 59624
        },
        {
            "buffer" : 0,
            "byteLength" : 12160,
            "byteOffset" : 77864
        },
        {
            "buffer" : 0,
            "byteLength" : 3936,
            "byteOffset" : 90024
        },
        {
            "buffer" : 0,
            "byteLength" : 1296,
            "byteOffset" : 93960
        },
        {
            "buffer" : 0,
            "byteLength" : 1296,
            "byteOffset" : 95256
        },
        {
            "buffer" : 0,
            "byteLength" : 864,
            "byteOffset" : 96552
        },
        {
            "buffer" : 0,
            "byteLength" : 312,
            "byteOffset" : 97416
        },
        {
            "buffer" : 0,
            "byteLength" : 288,
            "byteOffset" : 97728
        },
        {
            "buffer" : 0,
            "byteLength" : 288,
            "byteOffset" : 98016
        },
        {
            "buffer" : 0,
            "byteLength" : 192,
            "byteOffset" : 98304
        },
        {
            "buffer" : 0,
            "byteLength" : 60,
            "byteOffset" : 98496
        },
        {
            "buffer" : 0,
            "byteLength" : 10464,
            "byteOffset" : 98556
        },
        {
            "buffer" : 0,
            "byteLength" : 10464,
            "byteOffset" : 109020
        },
        {
            "buffer" : 0,
            "byteLength" : 6976,
            "byteOffset" : 119484
        },
        {
            "buffer" : 0,
            "byteLength" : 2160,
            "byteOffset" : 126460
        },
        {
            "buffer" : 0,
            "byteLength" : 7944,
            "byteOffset" : 128620
        },
        {
            "buffer" : 0,
            "byteLength" : 7944,
            "byteOffset" : 136564
        },
        {
            "buffer" : 0,
            "byteLength" : 5296,
            "byteOffset" : 144508
        },
        {
            "buffer" : 0,
            "byteLength" : 1764,
            "byteOffset" : 149804
        },
        {
            "buffer" : 0,
            "byteLength" : 2628,
            "byteOffset" : 151568
        },
        {
            "buffer" : 0,
            "byteLength" : 2628,
            "byteOffset" : 154196
        },
        {
            "buffer" : 0,
            "byteLength" : 1752,
            "byteOffset" : 156824
        },
        {
            "buffer" : 0,
            "byteLength" : 648,
            "byteOffset" : 158576
        },
        {
            "buffer" : 0,
            "byteLength" : 1008,
            "byteOffset" : 159224
        },
        {
            "buffer" : 0,
            "byteLength" : 1008,
            "byteOffset" : 160232
        },
        {
            "buffer" : 0,
            "byteLength" : 672,
            "byteOffset" : 161240
        },
        {
            "buffer" : 0,
            "byteLength" : 216,
            "byteOffset" : 161912
        },
        {
            "buffer" : 0,
            "byteLength" : 32064,
            "byteOffset" : 162128
        },
        {
            "buffer" : 0,
            "byteLength" : 32064,
            "byteOffset" : 194192
        },
        {
            "buffer" : 0,
            "byteLength" : 21376,
            "byteOffset" : 226256
        },
        {
            "buffer" : 0,
            "byteLength" : 6432,
            "byteOffset" : 247632
        }
    ],
    "buffers" : [
        {
            "byteLength" : 254064,
            "uri" : "untitled.bin"
        }
    ]
}
