{
    "asset" : {
        "generator" : "Khronos glTF Blender I/O v1.1.46",
        "version" : "2.0"
    },
    "scene" : 0,
    "scenes" : [
        {
            "name" : "Scene",
            "nodes" : [
                11,
                12,
                13,
                14
            ]
        }
    ],
    "nodes" : [
        {
            "mesh" : 0,
            "name" : "DIV_T3_16_PERRONE_01_1"
        },
        {
            "mesh" : 1,
            "name" : "DIV_T3_16_PERRONE_01_10"
        },
        {
            "mesh" : 2,
            "name" : "DIV_T3_16_PERRONE_01_10.001",
            "scale" : [
                1.7900002002716064,
                1.4999995231628418,
                0.02500000037252903
            ],
            "translation" : [
                0.9118002653121948,
                -0.009999999776482582,
                -1.0169800519943237
            ]
        },
        {
            "mesh" : 3,
            "name" : "DIV_T3_16_PERRONE_01_2"
        },
        {
            "mesh" : 4,
            "name" : "DIV_T3_16_PERRONE_01_4"
        },
        {
            "mesh" : 5,
            "name" : "DIV_T3_16_PERRONE_01_5"
        },
        {
            "mesh" : 6,
            "name" : "DIV_T3_16_PERRONE_01_6"
        },
        {
            "children" : [
                0,
                1,
                2,
                3,
                4,
                5,
                6
            ],
            "name" : "DIV_T3_16_PERRONE_01",
            "scale" : [
                0.7942699790000916,
                1,
                0.6609200239181519
            ],
            "translation" : [
                0.026669999584555626,
                0.05000000074505806,
                0.0011699999449774623
            ]
        },
        {
            "children" : [
                7
            ],
            "name" : "DIV_T3_16_PERRONE_01.001"
        },
        {
            "children" : [
                8
            ],
            "name" : "Root"
        },
        {
            "children" : [
                9
            ],
            "name" : "RootNode (model correction matrix)"
        },
        {
            "children" : [
                10
            ],
            "name" : "RootNode (gltf orientation matrix)"
        },
        {
            "name" : "Hemi.001"
        },
        {
            "name" : "Hemi.003"
        },
        {
            "name" : "Hemi.005"
        }
    ],
    "materials" : [
        {
            "doubleSided" : true,
            "emissiveFactor" : [
                0,
                0,
                0
            ],
            "name" : "Brick",
            "pbrMetallicRoughness" : {
                "baseColorFactor" : [
                    0.2667582035064697,
                    0.07001648843288422,
                    0.0333021804690361,
                    1
                ],
                "metallicFactor" : 0,
                "roughnessFactor" : 0.6000000238418579
            }
        },
        {
            "doubleSided" : true,
            "emissiveFactor" : [
                0,
                0,
                0
            ],
            "name" : "Material.004",
            "pbrMetallicRoughness" : {
                "baseColorFactor" : [
                    0.08352947235107422,
                    0.08352947235107422,
                    0.08352947235107422,
                    1
                ],
                "metallicFactor" : 0,
                "roughnessFactor" : 0.6000000238418579
            }
        },
        {
            "doubleSided" : true,
            "emissiveFactor" : [
                0,
                0,
                0
            ],
            "name" : "Windows",
            "pbrMetallicRoughness" : {
                "baseColorFactor" : [
                    0.26857951283454895,
                    0.5237716436386108,
                    0.8000000715255737,
                    1
                ],
                "metallicFactor" : 0,
                "roughnessFactor" : 0.6000000238418579
            }
        },
        {
            "doubleSided" : true,
            "emissiveFactor" : [
                0,
                0,
                0
            ],
            "name" : "brick02",
            "pbrMetallicRoughness" : {
                "baseColorFactor" : [
                    0.1574362963438034,
                    0.025306928902864456,
                    0.028348183259367943,
                    1
                ],
                "metallicFactor" : 0,
                "roughnessFactor" : 0.6000000238418579
            }
        },
        {
            "doubleSided" : true,
            "emissiveFactor" : [
                0,
                0,
                0
            ],
            "name" : "Metal",
            "pbrMetallicRoughness" : {
                "baseColorFactor" : [
                    0.03968045487999916,
                    0.03968045487999916,
                    0.03968045487999916,
                    1
                ],
                "metallicFactor" : 0,
                "roughnessFactor" : 0.6000000238418579
            }
        },
        {
            "doubleSided" : true,
            "emissiveFactor" : [
                0,
                0,
                0
            ],
            "name" : "Metal02",
            "pbrMetallicRoughness" : {
                "baseColorFactor" : [
                    0.2882996201515198,
                    0.2882996201515198,
                    0.2882996201515198,
                    1
                ],
                "metallicFactor" : 0,
                "roughnessFactor" : 0.6000000238418579
            }
        }
    ],
    "meshes" : [
        {
            "name" : "DIV_T3_16_PERRONE_01_1",
            "primitives" : [
                {
                    "attributes" : {
                        "POSITION" : 0,
                        "NORMAL" : 1
                    },
                    "indices" : 2,
                    "material" : 0
                }
            ]
        },
        {
            "name" : "DIV_T3_16_PERRONE_01_10",
            "primitives" : [
                {
                    "attributes" : {
                        "POSITION" : 3,
                        "NORMAL" : 4
                    },
                    "indices" : 5,
                    "material" : 1
                }
            ]
        },
        {
            "name" : "DIV_T3_16_PERRONE_01_10.001",
            "primitives" : [
                {
                    "attributes" : {
                        "POSITION" : 6,
                        "NORMAL" : 7
                    },
                    "indices" : 8,
                    "material" : 1
                }
            ]
        },
        {
            "name" : "DIV_T3_16_PERRONE_01_2",
            "primitives" : [
                {
                    "attributes" : {
                        "POSITION" : 9,
                        "NORMAL" : 10
                    },
                    "indices" : 11,
                    "material" : 2
                }
            ]
        },
        {
            "name" : "DIV_T3_16_PERRONE_01_4",
            "primitives" : [
                {
                    "attributes" : {
                        "POSITION" : 12,
                        "NORMAL" : 13
                    },
                    "indices" : 14,
                    "material" : 3
                }
            ]
        },
        {
            "name" : "DIV_T3_16_PERRONE_01_5",
            "primitives" : [
                {
                    "attributes" : {
                        "POSITION" : 15,
                        "NORMAL" : 16
                    },
                    "indices" : 17,
                    "material" : 4
                }
            ]
        },
        {
            "name" : "DIV_T3_16_PERRONE_01_6",
            "primitives" : [
                {
                    "attributes" : {
                        "POSITION" : 18,
                        "NORMAL" : 19
                    },
                    "indices" : 20,
                    "material" : 5
                }
            ]
        }
    ],
    "accessors" : [
        {
            "bufferView" : 0,
            "componentType" : 5126,
            "count" : 289,
            "max" : [
                3.689110040664673,
                1.510409951210022,
                1.4868099689483643
            ],
            "min" : [
                -1.2194700241088867,
                -0.005619999952614307,
                -2.762769937515259
            ],
            "type" : "VEC3"
        },
        {
            "bufferView" : 1,
            "componentType" : 5126,
            "count" : 289,
            "type" : "VEC3"
        },
        {
            "bufferView" : 2,
            "componentType" : 5123,
            "count" : 450,
            "type" : "SCALAR"
        },
        {
            "bufferView" : 3,
            "componentType" : 5126,
            "count" : 231,
            "max" : [
                3.6644399166107178,
                0.013690000399947166,
                1.468440055847168
            ],
            "min" : [
                -1.1647800207138062,
                0,
                -1.051069974899292
            ],
            "type" : "VEC3"
        },
        {
            "bufferView" : 4,
            "componentType" : 5126,
            "count" : 231,
            "type" : "VEC3"
        },
        {
            "bufferView" : 5,
            "componentType" : 5123,
            "count" : 282,
            "type" : "SCALAR"
        },
        {
            "bufferView" : 6,
            "componentType" : 5126,
            "count" : 6,
            "max" : [
                1.508430004119873,
                0.01565999910235405,
                -1.2269099950790405
            ],
            "min" : [
                -1.16975998878479,
                0.01565999910235405,
                -4.4410200119018555
            ],
            "type" : "VEC3"
        },
        {
            "bufferView" : 7,
            "componentType" : 5126,
            "count" : 6,
            "type" : "VEC3"
        },
        {
            "bufferView" : 8,
            "componentType" : 5123,
            "count" : 6,
            "type" : "SCALAR"
        },
        {
            "bufferView" : 9,
            "componentType" : 5126,
            "count" : 312,
            "max" : [
                3.7005200386047363,
                1.600000023841858,
                -0.5599799752235413
            ],
            "min" : [
                1.6737600564956665,
                0.23455999791622162,
                -2.778480052947998
            ],
            "type" : "VEC3"
        },
        {
            "bufferView" : 10,
            "componentType" : 5126,
            "count" : 312,
            "type" : "VEC3"
        },
        {
            "bufferView" : 11,
            "componentType" : 5123,
            "count" : 420,
            "type" : "SCALAR"
        },
        {
            "bufferView" : 12,
            "componentType" : 5126,
            "count" : 118,
            "max" : [
                3.655980110168457,
                1.4721100330352783,
                -0.6435999870300293
            ],
            "min" : [
                -1.2659599781036377,
                0,
                -2.7229599952697754
            ],
            "type" : "VEC3"
        },
        {
            "bufferView" : 13,
            "componentType" : 5126,
            "count" : 118,
            "type" : "VEC3"
        },
        {
            "bufferView" : 14,
            "componentType" : 5123,
            "count" : 150,
            "type" : "SCALAR"
        },
        {
            "bufferView" : 15,
            "componentType" : 5126,
            "count" : 2147,
            "max" : [
                3.7005200386047363,
                1.6200400590896606,
                -0.5599799752235413
            ],
            "min" : [
                1.6737600564956665,
                0.0018500000005587935,
                -2.778480052947998
            ],
            "type" : "VEC3"
        },
        {
            "bufferView" : 16,
            "componentType" : 5126,
            "count" : 2147,
            "type" : "VEC3"
        },
        {
            "bufferView" : 17,
            "componentType" : 5123,
            "count" : 2286,
            "type" : "SCALAR"
        },
        {
            "bufferView" : 18,
            "componentType" : 5126,
            "count" : 182,
            "max" : [
                3.4626998901367188,
                1.254480004310608,
                -1.0476399660110474
            ],
            "min" : [
                2.138390064239502,
                0.0018500000005587935,
                -1.6284699440002441
            ],
            "type" : "VEC3"
        },
        {
            "bufferView" : 19,
            "componentType" : 5126,
            "count" : 182,
            "type" : "VEC3"
        },
        {
            "bufferView" : 20,
            "componentType" : 5123,
            "count" : 204,
            "type" : "SCALAR"
        }
    ],
    "bufferViews" : [
        {
            "buffer" : 0,
            "byteLength" : 3468,
            "byteOffset" : 0
        },
        {
            "buffer" : 0,
            "byteLength" : 3468,
            "byteOffset" : 3468
        },
        {
            "buffer" : 0,
            "byteLength" : 900,
            "byteOffset" : 6936
        },
        {
            "buffer" : 0,
            "byteLength" : 2772,
            "byteOffset" : 7836
        },
        {
            "buffer" : 0,
            "byteLength" : 2772,
            "byteOffset" : 10608
        },
        {
            "buffer" : 0,
            "byteLength" : 564,
            "byteOffset" : 13380
        },
        {
            "buffer" : 0,
            "byteLength" : 72,
            "byteOffset" : 13944
        },
        {
            "buffer" : 0,
            "byteLength" : 72,
            "byteOffset" : 14016
        },
        {
            "buffer" : 0,
            "byteLength" : 12,
            "byteOffset" : 14088
        },
        {
            "buffer" : 0,
            "byteLength" : 3744,
            "byteOffset" : 14100
        },
        {
            "buffer" : 0,
            "byteLength" : 3744,
            "byteOffset" : 17844
        },
        {
            "buffer" : 0,
            "byteLength" : 840,
            "byteOffset" : 21588
        },
        {
            "buffer" : 0,
            "byteLength" : 1416,
            "byteOffset" : 22428
        },
        {
            "buffer" : 0,
            "byteLength" : 1416,
            "byteOffset" : 23844
        },
        {
            "buffer" : 0,
            "byteLength" : 300,
            "byteOffset" : 25260
        },
        {
            "buffer" : 0,
            "byteLength" : 25764,
            "byteOffset" : 25560
        },
        {
            "buffer" : 0,
            "byteLength" : 25764,
            "byteOffset" : 51324
        },
        {
            "buffer" : 0,
            "byteLength" : 4572,
            "byteOffset" : 77088
        },
        {
            "buffer" : 0,
            "byteLength" : 2184,
            "byteOffset" : 81660
        },
        {
            "buffer" : 0,
            "byteLength" : 2184,
            "byteOffset" : 83844
        },
        {
            "buffer" : 0,
            "byteLength" : 408,
            "byteOffset" : 86028
        }
    ],
    "buffers" : [
        {
            "byteLength" : 86436,
            "uri" : "untitled.bin"
        }
    ]
}
