{
    "asset" : {
        "generator" : "Khronos glTF Blender I/O v1.1.46",
        "version" : "2.0"
    },
    "scene" : 0,
    "scenes" : [
        {
            "name" : "Scene",
            "nodes" : [
                8
            ]
        }
    ],
    "nodes" : [
        {
            "mesh" : 0,
            "name" : "Object_10"
        },
        {
            "mesh" : 1,
            "name" : "Object_12"
        },
        {
            "mesh" : 2,
            "name" : "Object_15"
        },
        {
            "name" : "Object_3"
        },
        {
            "mesh" : 3,
            "name" : "Object_4"
        },
        {
            "mesh" : 4,
            "name" : "Object_5"
        },
        {
            "children" : [
                0,
                1,
                2,
                3,
                4,
                5
            ],
            "name" : "Low Poly Car Crash Scene.obj.cleaner.materialmerger.gles"
        },
        {
            "children" : [
                6
            ],
            "name" : "RootNode (model correction matrix)"
        },
        {
            "children" : [
                7
            ],
            "name" : "RootNode (gltf orientation matrix)"
        }
    ],
    "materials" : [
        {
            "doubleSided" : true,
            "emissiveFactor" : [
                0,
                0,
                0
            ],
            "name" : "Main",
            "pbrMetallicRoughness" : {
                "baseColorTexture" : {
                    "index" : 0,
                    "texCoord" : 0
                },
                "metallicFactor" : 0,
                "roughnessFactor" : 0.8434915542602539
            }
        },
        {
            "doubleSided" : true,
            "emissiveFactor" : [
                0,
                0,
                0
            ],
            "name" : "Main_NONE",
            "pbrMetallicRoughness" : {
                "baseColorTexture" : {
                    "index" : 1,
                    "texCoord" : 0
                },
                "metallicFactor" : 0,
                "roughnessFactor" : 0.8434915542602539
            }
        },
        {
            "doubleSided" : true,
            "emissiveFactor" : [
                0,
                0,
                0
            ],
            "name" : "material_3",
            "pbrMetallicRoughness" : {
                "baseColorFactor" : [
                    0.6399999856948853,
                    0.6399999856948853,
                    0.6399999856948853,
                    1
                ],
                "metallicFactor" : 0,
                "roughnessFactor" : 0.8434915542602539
            }
        },
        {
            "doubleSided" : true,
            "emissiveFactor" : [
                0,
                0,
                0
            ],
            "name" : "material_4",
            "pbrMetallicRoughness" : {
                "baseColorFactor" : [
                    0.17122599482536316,
                    0.17122599482536316,
                    0.17122599482536316,
                    1
                ],
                "metallicFactor" : 0,
                "roughnessFactor" : 0.8434915542602539
            }
        }
    ],
    "meshes" : [
        {
            "name" : "Mesh_7",
            "primitives" : [
                {
                    "attributes" : {
                        "POSITION" : 0,
                        "NORMAL" : 1,
                        "TEXCOORD_0" : 2
                    },
                    "indices" : 3,
                    "material" : 0
                }
            ]
        },
        {
            "name" : "Mesh_9",
            "primitives" : [
                {
                    "attributes" : {
                        "POSITION" : 4,
                        "NORMAL" : 5,
                        "TEXCOORD_0" : 6
                    },
                    "indices" : 7,
                    "material" : 0
                }
            ]
        },
        {
            "name" : "Mesh_12",
            "primitives" : [
                {
                    "attributes" : {
                        "POSITION" : 8,
                        "NORMAL" : 9,
                        "TEXCOORD_0" : 10
                    },
                    "indices" : 11,
                    "material" : 1
                }
            ]
        },
        {
            "name" : "Mesh_1",
            "primitives" : [
                {
                    "attributes" : {
                        "POSITION" : 12,
                        "NORMAL" : 13
                    },
                    "indices" : 14,
                    "material" : 2
                }
            ]
        },
        {
            "name" : "Mesh_2",
            "primitives" : [
                {
                    "attributes" : {
                        "POSITION" : 15,
                        "NORMAL" : 16
                    },
                    "indices" : 17,
                    "material" : 3
                }
            ]
        }
    ],
    "textures" : [
        {
            "source" : 0
        },
        {
            "source" : 1
        }
    ],
    "images" : [
        {
            "mimeType" : "image/png",
            "name" : "Main_baseColor",
            "uri" : "Main_baseColor.png"
        },
        {
            "mimeType" : "image/png",
            "name" : "Main_NONE_baseColor",
            "uri" : "Main_NONE_baseColor.png"
        }
    ],
    "accessors" : [
        {
            "bufferView" : 0,
            "componentType" : 5126,
            "count" : 1048,
            "max" : [
                -1.0033940076828003,
                1.6163610219955444,
                -9.044090270996094
            ],
            "min" : [
                -7.884152889251709,
                -0.7539610266685486,
                -10.046398162841797
            ],
            "type" : "VEC3"
        },
        {
            "bufferView" : 1,
            "componentType" : 5126,
            "count" : 1048,
            "type" : "VEC3"
        },
        {
            "bufferView" : 2,
            "componentType" : 5126,
            "count" : 1048,
            "type" : "VEC2"
        },
        {
            "bufferView" : 3,
            "componentType" : 5123,
            "count" : 1182,
            "type" : "SCALAR"
        },
        {
            "bufferView" : 4,
            "componentType" : 5126,
            "count" : 8718,
            "max" : [
                6.465668201446533,
                8.436677932739258,
                -9.198034286499023
            ],
            "min" : [
                -13.99657154083252,
                -0.7993900179862976,
                -17.134735107421875
            ],
            "type" : "VEC3"
        },
        {
            "bufferView" : 5,
            "componentType" : 5126,
            "count" : 8718,
            "type" : "VEC3"
        },
        {
            "bufferView" : 6,
            "componentType" : 5126,
            "count" : 8718,
            "type" : "VEC2"
        },
        {
            "bufferView" : 7,
            "componentType" : 5123,
            "count" : 10143,
            "type" : "SCALAR"
        },
        {
            "bufferView" : 8,
            "componentType" : 5126,
            "count" : 67,
            "max" : [
                6.198770046234131,
                5.727717876434326,
                -10.806537628173828
            ],
            "min" : [
                5.89998722076416,
                -0.32634198665618896,
                -16.232654571533203
            ],
            "type" : "VEC3"
        },
        {
            "bufferView" : 9,
            "componentType" : 5126,
            "count" : 67,
            "type" : "VEC3"
        },
        {
            "bufferView" : 10,
            "componentType" : 5126,
            "count" : 67,
            "type" : "VEC2"
        },
        {
            "bufferView" : 11,
            "componentType" : 5123,
            "count" : 99,
            "type" : "SCALAR"
        },
        {
            "bufferView" : 12,
            "componentType" : 5126,
            "count" : 257,
            "max" : [
                -0.5911639928817749,
                8.675045013427734,
                -11.803241729736328
            ],
            "min" : [
                -10.879227638244629,
                7.652637004852295,
                -15.4400053024292
            ],
            "type" : "VEC3"
        },
        {
            "bufferView" : 13,
            "componentType" : 5126,
            "count" : 257,
            "type" : "VEC3"
        },
        {
            "bufferView" : 14,
            "componentType" : 5123,
            "count" : 300,
            "type" : "SCALAR"
        },
        {
            "bufferView" : 15,
            "componentType" : 5126,
            "count" : 828,
            "max" : [
                0.6742179989814758,
                8.730916976928711,
                -11.96898365020752
            ],
            "min" : [
                -10.671304702758789,
                7.354989051818848,
                -15.266531944274902
            ],
            "type" : "VEC3"
        },
        {
            "bufferView" : 16,
            "componentType" : 5126,
            "count" : 828,
            "type" : "VEC3"
        },
        {
            "bufferView" : 17,
            "componentType" : 5123,
            "count" : 900,
            "type" : "SCALAR"
        }
    ],
    "bufferViews" : [
        {
            "buffer" : 0,
            "byteLength" : 12576,
            "byteOffset" : 0
        },
        {
            "buffer" : 0,
            "byteLength" : 12576,
            "byteOffset" : 12576
        },
        {
            "buffer" : 0,
            "byteLength" : 8384,
            "byteOffset" : 25152
        },
        {
            "buffer" : 0,
            "byteLength" : 2364,
            "byteOffset" : 33536
        },
        {
            "buffer" : 0,
            "byteLength" : 104616,
            "byteOffset" : 35900
        },
        {
            "buffer" : 0,
            "byteLength" : 104616,
            "byteOffset" : 140516
        },
        {
            "buffer" : 0,
            "byteLength" : 69744,
            "byteOffset" : 245132
        },
        {
            "buffer" : 0,
            "byteLength" : 20286,
            "byteOffset" : 314876
        },
        {
            "buffer" : 0,
            "byteLength" : 804,
            "byteOffset" : 335164
        },
        {
            "buffer" : 0,
            "byteLength" : 804,
            "byteOffset" : 335968
        },
        {
            "buffer" : 0,
            "byteLength" : 536,
            "byteOffset" : 336772
        },
        {
            "buffer" : 0,
            "byteLength" : 198,
            "byteOffset" : 337308
        },
        {
            "buffer" : 0,
            "byteLength" : 3084,
            "byteOffset" : 337508
        },
        {
            "buffer" : 0,
            "byteLength" : 3084,
            "byteOffset" : 340592
        },
        {
            "buffer" : 0,
            "byteLength" : 600,
            "byteOffset" : 343676
        },
        {
            "buffer" : 0,
            "byteLength" : 9936,
            "byteOffset" : 344276
        },
        {
            "buffer" : 0,
            "byteLength" : 9936,
            "byteOffset" : 354212
        },
        {
            "buffer" : 0,
            "byteLength" : 1800,
            "byteOffset" : 364148
        }
    ],
    "buffers" : [
        {
            "byteLength" : 365948,
            "uri" : "untitled.bin"
        }
    ]
}
