{
    "asset" : {
        "generator" : "Khronos glTF Blender I/O v1.1.46",
        "version" : "2.0"
    },
    "scene" : 0,
    "scenes" : [
        {
            "name" : "Scene",
            "nodes" : [
                0,
                8
            ]
        }
    ],
    "nodes" : [
        {
            "name" : "Camera",
            "rotation" : [
                0.483536034822464,
                0.33687159419059753,
                -0.20870360732078552,
                0.7804827094078064
            ],
            "translation" : [
                7.358891487121582,
                4.958309173583984,
                6.925790786743164
            ]
        },
        {
            "mesh" : 0,
            "name" : "Road 1_0"
        },
        {
            "children" : [
                1
            ],
            "name" : "Road 1",
            "rotation" : [
                0,
                1,
                0,
                0
            ],
            "scale" : [
                1.33132004737854,
                0.07072000205516815,
                1.33132004737854
            ],
            "translation" : [
                1.191499948501587,
                -1.1953200101852417,
                -14.2710599899292
            ]
        },
        {
            "name" : "Road 2",
            "scale" : [
                1.33132004737854,
                0.07072000205516815,
                1.325850009918213
            ],
            "translation" : [
                1.191499948501587,
                -1.1067500114440918,
                -17.12574005126953
            ]
        },
        {
            "name" : "Road 3",
            "scale" : [
                1.33132004737854,
                0.07072000205516815,
                1.325850009918213
            ],
            "translation" : [
                -1.69173002243042,
                -1.1953200101852417,
                -17.145709991455078
            ]
        },
        {
            "name" : "Road 4",
            "rotation" : [
                0,
                0.7071067690849304,
                0,
                0.7071068286895752
            ],
            "scale" : [
                1.33132004737854,
                0.07072000205516815,
                1.33132004737854
            ],
            "translation" : [
                -1.69173002243042,
                -1.1953200101852417,
                -14.284500122070312
            ]
        },
        {
            "children" : [
                2,
                3,
                4,
                5
            ],
            "name" : "Root"
        },
        {
            "children" : [
                6
            ],
            "name" : "RootNode (model correction matrix)"
        },
        {
            "children" : [
                7
            ],
            "name" : "RootNode (gltf orientation matrix)"
        }
    ],
    "materials" : [
        {
            "doubleSided" : true,
            "emissiveFactor" : [
                0,
                0,
                0
            ],
            "name" : "Texture",
            "pbrMetallicRoughness" : {
                "baseColorTexture" : {
                    "index" : 0,
                    "texCoord" : 0
                },
                "metallicFactor" : 0,
                "roughnessFactor" : 0.6000000238418579
            }
        }
    ],
    "meshes" : [
        {
            "name" : "Road 1_0",
            "primitives" : [
                {
                    "attributes" : {
                        "POSITION" : 0,
                        "NORMAL" : 1,
                        "TEXCOORD_0" : 2
                    },
                    "indices" : 3,
                    "material" : 0
                }
            ]
        }
    ],
    "textures" : [
        {
            "source" : 0
        }
    ],
    "images" : [
        {
            "mimeType" : "image/png",
            "name" : "Texture_baseColor",
            "uri" : "Texture_baseColor.png"
        }
    ],
    "accessors" : [
        {
            "bufferView" : 0,
            "componentType" : 5126,
            "count" : 270,
            "max" : [
                1,
                2.272710084915161,
                1
            ],
            "min" : [
                -1,
                -2.272710084915161,
                -1
            ],
            "type" : "VEC3"
        },
        {
            "bufferView" : 1,
            "componentType" : 5126,
            "count" : 270,
            "type" : "VEC3"
        },
        {
            "bufferView" : 2,
            "componentType" : 5126,
            "count" : 270,
            "type" : "VEC2"
        },
        {
            "bufferView" : 3,
            "componentType" : 5123,
            "count" : 480,
            "type" : "SCALAR"
        }
    ],
    "bufferViews" : [
        {
            "buffer" : 0,
            "byteLength" : 3240,
            "byteOffset" : 0
        },
        {
            "buffer" : 0,
            "byteLength" : 3240,
            "byteOffset" : 3240
        },
        {
            "buffer" : 0,
            "byteLength" : 2160,
            "byteOffset" : 6480
        },
        {
            "buffer" : 0,
            "byteLength" : 960,
            "byteOffset" : 8640
        }
    ],
    "buffers" : [
        {
            "byteLength" : 9600,
            "uri" : "untitled.bin"
        }
    ]
}
