{
    "asset" : {
        "generator" : "Khronos glTF Blender I/O v1.1.46",
        "version" : "2.0"
    },
    "scene" : 0,
    "scenes" : [
        {
            "name" : "Scene",
            "nodes" : [
                15
            ]
        }
    ],
    "nodes" : [
        {
            "mesh" : 0,
            "name" : "marciapiede_svolta_dura_DX.001_Colore_0"
        },
        {
            "children" : [
                0
            ],
            "name" : "marciapiede_svolta_dura_DX.001",
            "rotation" : [
                0,
                0.7071068286895752,
                -0.7071068286895752,
                -1.3767879636361613e-07
            ],
            "scale" : [
                100,
                100,
                100
            ],
            "translation" : [
                -600,
                -1100,
                0
            ]
        },
        {
            "mesh" : 1,
            "name" : "marciapiede_svolta_dura_DX.002_Colore_0"
        },
        {
            "children" : [
                2
            ],
            "name" : "marciapiede_svolta_dura_DX.002",
            "rotation" : [
                -0.7071068286895752,
                0,
                0,
                0.7071067094802856
            ],
            "scale" : [
                100,
                100,
                100
            ],
            "translation" : [
                199.99996948242188,
                -300,
                0
            ]
        },
        {
            "mesh" : 2,
            "name" : "marciapiede_svolta_dura_SX.001_Colore_0"
        },
        {
            "children" : [
                4
            ],
            "name" : "marciapiede_svolta_dura_SX.001",
            "rotation" : [
                -0.7071068286895752,
                0,
                0,
                0.7071067094802856
            ],
            "scale" : [
                100,
                100,
                100
            ],
            "translation" : [
                -600,
                -300,
                0
            ]
        },
        {
            "mesh" : 3,
            "name" : "marciapiede_svolta_dura_SX.002_Colore_0"
        },
        {
            "children" : [
                6
            ],
            "name" : "marciapiede_svolta_dura_SX.002",
            "rotation" : [
                0,
                0.7071068286895752,
                -0.7071068286895752,
                -5.338509012631221e-08
            ],
            "scale" : [
                100,
                100,
                100
            ],
            "translation" : [
                200.00003051757812,
                -1100,
                0
            ]
        },
        {
            "mesh" : 4,
            "name" : "marciapiede_svolta_DX.001_Colore_0"
        },
        {
            "children" : [
                8
            ],
            "name" : "marciapiede_svolta_DX.001",
            "rotation" : [
                -0.7071068286895752,
                0,
                0,
                0.7071067094802856
            ],
            "scale" : [
                100,
                100,
                100
            ],
            "translation" : [
                -600,
                -300,
                0
            ]
        },
        {
            "mesh" : 5,
            "name" : "marciapiede_svolta_DX.002_Colore_0"
        },
        {
            "children" : [
                10
            ],
            "name" : "marciapiede_svolta_DX.002",
            "rotation" : [
                0,
                0.7071068286895752,
                -0.7071068286895752,
                1.3767879636361613e-07
            ],
            "scale" : [
                100,
                100,
                100
            ],
            "translation" : [
                200,
                -1100,
                0
            ]
        },
        {
            "children" : [
                1,
                3,
                5,
                7,
                9,
                11
            ],
            "name" : "RootNode"
        },
        {
            "children" : [
                12
            ],
            "name" : "32dab9990df64e77a424a7891bcd8416.fbx",
            "rotation" : [
                0.7071068286895752,
                0,
                0,
                0.7071068286895752
            ]
        },
        {
            "children" : [
                13
            ],
            "name" : "RootNode (model correction matrix).001"
        },
        {
            "children" : [
                14
            ],
            "name" : "RootNode (gltf orientation matrix).001",
            "scale" : [
                0.009999999776482582,
                0.009999999776482582,
                0.009999999776482582
            ]
        }
    ],
    "materials" : [
        {
            "emissiveFactor" : [
                0,
                0,
                0
            ],
            "name" : "Colore",
            "pbrMetallicRoughness" : {
                "baseColorTexture" : {
                    "index" : 0,
                    "texCoord" : 0
                },
                "metallicFactor" : 0,
                "roughnessFactor" : 1
            }
        }
    ],
    "meshes" : [
        {
            "name" : "marciapiede_svolta_dura_DX.001_Colore_0",
            "primitives" : [
                {
                    "attributes" : {
                        "POSITION" : 0,
                        "NORMAL" : 1,
                        "TEXCOORD_0" : 2
                    },
                    "indices" : 3,
                    "material" : 0
                }
            ]
        },
        {
            "name" : "marciapiede_svolta_dura_DX.002_Colore_0",
            "primitives" : [
                {
                    "attributes" : {
                        "POSITION" : 4,
                        "NORMAL" : 5,
                        "TEXCOORD_0" : 6
                    },
                    "indices" : 3,
                    "material" : 0
                }
            ]
        },
        {
            "name" : "marciapiede_svolta_dura_SX.001_Colore_0",
            "primitives" : [
                {
                    "attributes" : {
                        "POSITION" : 7,
                        "NORMAL" : 8,
                        "TEXCOORD_0" : 9
                    },
                    "indices" : 10,
                    "material" : 0
                }
            ]
        },
        {
            "name" : "marciapiede_svolta_dura_SX.002_Colore_0",
            "primitives" : [
                {
                    "attributes" : {
                        "POSITION" : 11,
                        "NORMAL" : 12,
                        "TEXCOORD_0" : 13
                    },
                    "indices" : 10,
                    "material" : 0
                }
            ]
        },
        {
            "name" : "marciapiede_svolta_DX.001_Colore_0",
            "primitives" : [
                {
                    "attributes" : {
                        "POSITION" : 14,
                        "NORMAL" : 15,
                        "TEXCOORD_0" : 16
                    },
                    "indices" : 17,
                    "material" : 0
                }
            ]
        },
        {
            "name" : "marciapiede_svolta_DX.002_Colore_0",
            "primitives" : [
                {
                    "attributes" : {
                        "POSITION" : 18,
                        "NORMAL" : 19,
                        "TEXCOORD_0" : 20
                    },
                    "indices" : 17,
                    "material" : 0
                }
            ]
        }
    ],
    "textures" : [
        {
            "source" : 0
        }
    ],
    "images" : [
        {
            "mimeType" : "image/png",
            "name" : "Colore_baseColor",
            "uri" : "Colore_baseColor.png"
        }
    ],
    "accessors" : [
        {
            "bufferView" : 0,
            "componentType" : 5126,
            "count" : 48,
            "max" : [
                2,
                0.09999999403953552,
                0
            ],
            "min" : [
                0,
                0,
                -4
            ],
            "type" : "VEC3"
        },
        {
            "bufferView" : 1,
            "componentType" : 5126,
            "count" : 48,
            "type" : "VEC3"
        },
        {
            "bufferView" : 2,
            "componentType" : 5126,
            "count" : 48,
            "type" : "VEC2"
        },
        {
            "bufferView" : 3,
            "componentType" : 5123,
            "count" : 60,
            "type" : "SCALAR"
        },
        {
            "bufferView" : 4,
            "componentType" : 5126,
            "count" : 48,
            "max" : [
                2,
                0.09999999403953552,
                0
            ],
            "min" : [
                0,
                0,
                -4
            ],
            "type" : "VEC3"
        },
        {
            "bufferView" : 5,
            "componentType" : 5126,
            "count" : 48,
            "type" : "VEC3"
        },
        {
            "bufferView" : 6,
            "componentType" : 5126,
            "count" : 48,
            "type" : "VEC2"
        },
        {
            "bufferView" : 7,
            "componentType" : 5126,
            "count" : 56,
            "max" : [
                2.4875216695363633e-06,
                0.09999999403953552,
                -1.1920928955078125e-07
            ],
            "min" : [
                -2,
                0,
                -4.000001430511475
            ],
            "type" : "VEC3"
        },
        {
            "bufferView" : 8,
            "componentType" : 5126,
            "count" : 56,
            "type" : "VEC3"
        },
        {
            "bufferView" : 9,
            "componentType" : 5126,
            "count" : 56,
            "type" : "VEC2"
        },
        {
            "bufferView" : 10,
            "componentType" : 5123,
            "count" : 60,
            "type" : "SCALAR"
        },
        {
            "bufferView" : 11,
            "componentType" : 5126,
            "count" : 56,
            "max" : [
                2.4875216695363633e-06,
                0.09999999403953552,
                -1.1920928955078125e-07
            ],
            "min" : [
                -2,
                0,
                -4.000001430511475
            ],
            "type" : "VEC3"
        },
        {
            "bufferView" : 12,
            "componentType" : 5126,
            "count" : 56,
            "type" : "VEC3"
        },
        {
            "bufferView" : 13,
            "componentType" : 5126,
            "count" : 56,
            "type" : "VEC2"
        },
        {
            "bufferView" : 14,
            "componentType" : 5126,
            "count" : 154,
            "max" : [
                8,
                0.09999999403953552,
                0
            ],
            "min" : [
                0,
                0,
                -4
            ],
            "type" : "VEC3"
        },
        {
            "bufferView" : 15,
            "componentType" : 5126,
            "count" : 154,
            "type" : "VEC3"
        },
        {
            "bufferView" : 16,
            "componentType" : 5126,
            "count" : 154,
            "type" : "VEC2"
        },
        {
            "bufferView" : 17,
            "componentType" : 5123,
            "count" : 192,
            "type" : "SCALAR"
        },
        {
            "bufferView" : 18,
            "componentType" : 5126,
            "count" : 154,
            "max" : [
                8,
                0.09999999403953552,
                0
            ],
            "min" : [
                0,
                0,
                -4
            ],
            "type" : "VEC3"
        },
        {
            "bufferView" : 19,
            "componentType" : 5126,
            "count" : 154,
            "type" : "VEC3"
        },
        {
            "bufferView" : 20,
            "componentType" : 5126,
            "count" : 154,
            "type" : "VEC2"
        }
    ],
    "bufferViews" : [
        {
            "buffer" : 0,
            "byteLength" : 576,
            "byteOffset" : 0
        },
        {
            "buffer" : 0,
            "byteLength" : 576,
            "byteOffset" : 576
        },
        {
            "buffer" : 0,
            "byteLength" : 384,
            "byteOffset" : 1152
        },
        {
            "buffer" : 0,
            "byteLength" : 120,
            "byteOffset" : 1536
        },
        {
            "buffer" : 0,
            "byteLength" : 576,
            "byteOffset" : 1656
        },
        {
            "buffer" : 0,
            "byteLength" : 576,
            "byteOffset" : 2232
        },
        {
            "buffer" : 0,
            "byteLength" : 384,
            "byteOffset" : 2808
        },
        {
            "buffer" : 0,
            "byteLength" : 672,
            "byteOffset" : 3192
        },
        {
            "buffer" : 0,
            "byteLength" : 672,
            "byteOffset" : 3864
        },
        {
            "buffer" : 0,
            "byteLength" : 448,
            "byteOffset" : 4536
        },
        {
            "buffer" : 0,
            "byteLength" : 120,
            "byteOffset" : 4984
        },
        {
            "buffer" : 0,
            "byteLength" : 672,
            "byteOffset" : 5104
        },
        {
            "buffer" : 0,
            "byteLength" : 672,
            "byteOffset" : 5776
        },
        {
            "buffer" : 0,
            "byteLength" : 448,
            "byteOffset" : 6448
        },
        {
            "buffer" : 0,
            "byteLength" : 1848,
            "byteOffset" : 6896
        },
        {
            "buffer" : 0,
            "byteLength" : 1848,
            "byteOffset" : 8744
        },
        {
            "buffer" : 0,
            "byteLength" : 1232,
            "byteOffset" : 10592
        },
        {
            "buffer" : 0,
            "byteLength" : 384,
            "byteOffset" : 11824
        },
        {
            "buffer" : 0,
            "byteLength" : 1848,
            "byteOffset" : 12208
        },
        {
            "buffer" : 0,
            "byteLength" : 1848,
            "byteOffset" : 14056
        },
        {
            "buffer" : 0,
            "byteLength" : 1232,
            "byteOffset" : 15904
        }
    ],
    "buffers" : [
        {
            "byteLength" : 17136,
            "uri" : "untitled.bin"
        }
    ]
}
