{
    "asset" : {
        "generator" : "Khronos glTF Blender I/O v1.1.46",
        "version" : "2.0"
    },
    "scene" : 0,
    "scenes" : [
        {
            "name" : "Scene",
            "nodes" : [
                6,
                29,
                30
            ]
        }
    ],
    "nodes" : [
        {
            "mesh" : 0,
            "name" : "Mountain_Brown_0"
        },
        {
            "mesh" : 1,
            "name" : "Mountain_DarkBrown_0"
        },
        {
            "children" : [
                0,
                1
            ],
            "name" : "Mountain",
            "rotation" : [
                -0.5000001192092896,
                -0.5000000596046448,
                0.49999988079071045,
                0.4999999403953552
            ],
            "scale" : [
                300,
                300,
                300
            ],
            "translation" : [
                1938.7332763671875,
                2828.60595703125,
                0
            ]
        },
        {
            "children" : [
                2
            ],
            "name" : "RootNode"
        },
        {
            "children" : [
                3
            ],
            "name" : "f0f07649eeb94cc487b8fa5089bc4c25.fbx",
            "rotation" : [
                0.7071068286895752,
                0,
                0,
                0.7071068286895752
            ]
        },
        {
            "children" : [
                4
            ],
            "name" : "RootNode (model correction matrix)"
        },
        {
            "children" : [
                5
            ],
            "name" : "RootNode (gltf orientation matrix)",
            "scale" : [
                0.10000000149011612,
                0.10000000149011612,
                0.10000000149011612
            ]
        },
        {
            "name" : "Left3_end_end_018",
            "rotation" : [
                0.0027417808305472136,
                -3.159676680297707e-06,
                -0.0014681427273899317,
                0.9999951720237732
            ],
            "scale" : [
                0.9999999403953552,
                1,
                1
            ],
            "translation" : [
                0.004730553831905127,
                1.6211376190185547,
                0.008834455162286758
            ]
        },
        {
            "children" : [
                7
            ],
            "name" : "Left3_end_03",
            "rotation" : [
                0.000596479803789407,
                0.0029883768875151873,
                0.0007253408548422158,
                0.9999951124191284
            ],
            "scale" : [
                100.0000228881836,
                99.99996948242188,
                100
            ],
            "translation" : [
                9.763031005859375,
                161.46139526367188,
                -4.987569808959961
            ]
        },
        {
            "children" : [
                8
            ],
            "name" : "Left3_02",
            "rotation" : [
                -0.23603272438049316,
                0.06307414919137955,
                0.32025080919265747,
                0.915286660194397
            ],
            "scale" : [
                0.9999997615814209,
                0.9999998807907104,
                1.0000001192092896
            ],
            "translation" : [
                0.00025904091307893395,
                106.70777893066406,
                -0.004124794155359268
            ]
        },
        {
            "children" : [
                9
            ],
            "name" : "Left2_01",
            "rotation" : [
                -0.21138012409210205,
                -0.7030661106109619,
                0.06420683860778809,
                0.6759393215179443
            ],
            "scale" : [
                1,
                0.999999463558197,
                0.9999998211860657
            ],
            "translation" : [
                -0.0020063326228410006,
                62.7596549987793,
                -0.0015063323080539703
            ]
        },
        {
            "children" : [
                10
            ],
            "name" : "Left1_00",
            "rotation" : [
                0.7013458013534546,
                0.30223557353019714,
                -0.4357685446739197,
                0.47631242871284485
            ],
            "scale" : [
                0.009999997913837433,
                0.010000001639127731,
                0.009999998845160007
            ],
            "translation" : [
                0.0447845458984375,
                0.05587005615234375,
                0.08132576942443848
            ]
        },
        {
            "name" : "Right3_end_end_019",
            "rotation" : [
                0.004226200748234987,
                -1.0226203812635504e-06,
                0.0005919061950407922,
                0.9999908804893494
            ],
            "scale" : [
                0.9999999403953552,
                1,
                1
            ],
            "translation" : [
                -0.0019072187133133411,
                1.6209651231765747,
                0.013617410324513912
            ]
        },
        {
            "children" : [
                12
            ],
            "name" : "Right3_end_07",
            "rotation" : [
                0.0023218663409352303,
                -0.0035339384339749813,
                0.0007436272571794689,
                0.9999908208847046
            ],
            "scale" : [
                100.00006103515625,
                99.99995422363281,
                99.99999237060547
            ],
            "translation" : [
                -12.433502197265625,
                153.66131591796875,
                -1.156463623046875
            ]
        },
        {
            "children" : [
                13
            ],
            "name" : "Right3_06",
            "rotation" : [
                0.39323219656944275,
                -0.8982614278793335,
                -0.06033309921622276,
                0.1866946965456009
            ],
            "scale" : [
                1.000000238418579,
                0.9999986886978149,
                0.9999998211860657
            ],
            "translation" : [
                -0.0003319632960483432,
                106.70774841308594,
                0.004258123226463795
            ]
        },
        {
            "children" : [
                14
            ],
            "name" : "Right2_05",
            "rotation" : [
                0.051866356283426285,
                -0.024047911167144775,
                0.21474212408065796,
                0.9749960899353027
            ],
            "scale" : [
                1,
                1.0000001192092896,
                0.9999998807907104
            ],
            "translation" : [
                -0.0009588972898200154,
                62.76043701171875,
                -0.002481835661455989
            ]
        },
        {
            "children" : [
                15
            ],
            "name" : "Right1_04",
            "rotation" : [
                0.8230239152908325,
                -0.5261613130569458,
                -0.06641629338264465,
                0.20340800285339355
            ],
            "scale" : [
                0.010000001639127731,
                0.010000004433095455,
                0.010000001639127731
            ],
            "translation" : [
                -0.645477294921875,
                -0.08808135986328125,
                0.01220703125
            ]
        },
        {
            "name" : "Head_end_end_016",
            "rotation" : [
                -0.0001625492295715958,
                -1.3479654892289972e-10,
                8.294848612422356e-07,
                1
            ],
            "scale" : [
                1,
                0.9999999403953552,
                0.9999999403953552
            ],
            "translation" : [
                -1.2853691941927536e-06,
                0.7848694920539856,
                -0.0002518861729186028
            ]
        },
        {
            "children" : [
                17
            ],
            "name" : "Head_end_010",
            "rotation" : [
                0.00018536578863859177,
                6.532086445076857e-07,
                2.335763156224857e-07,
                1
            ],
            "scale" : [
                100,
                99.9999771118164,
                99.99732208251953
            ],
            "translation" : [
                0.002017772290855646,
                78.01651763916016,
                -0.1583814024925232
            ]
        },
        {
            "children" : [
                18
            ],
            "name" : "Head_09",
            "rotation" : [
                -4.752334969992944e-09,
                0.9995635151863098,
                0.029542919248342514,
                -1.507120600763301e-06
            ],
            "scale" : [
                1.0000001192092896,
                1.000027060508728,
                0.9999735355377197
            ],
            "translation" : [
                4.33482819062192e-05,
                134.29888916015625,
                0.006154919508844614
            ]
        },
        {
            "children" : [
                19
            ],
            "name" : "Chest_08",
            "rotation" : [
                -0.9996877908706665,
                1.3748132232649368e-07,
                6.590386192328879e-07,
                0.02498973160982132
            ],
            "scale" : [
                0.009999998845160007,
                0.009999996982514858,
                0.009999999776482582
            ],
            "translation" : [
                -0.30029159784317017,
                0.5030513405799866,
                0.0359814316034317
            ]
        },
        {
            "name" : "LeftTail_end_end_017",
            "rotation" : [
                -1.9064179923589109e-06,
                -7.451357220134014e-08,
                3.81936024496099e-06,
                1
            ],
            "translation" : [
                -8.442513717454858e-06,
                1.1152347326278687,
                -4.214041837258264e-06
            ]
        },
        {
            "children" : [
                21
            ],
            "name" : "LeftTail_end_013",
            "rotation" : [
                -5.205338737823695e-08,
                -2.015271505229066e-08,
                -2.927780315076234e-06,
                1
            ],
            "scale" : [
                100.00000762939453,
                100.00000762939453,
                99.99998474121094
            ],
            "translation" : [
                -0.012207032181322575,
                111.5225830078125,
                0.0190169308334589
            ]
        },
        {
            "children" : [
                22
            ],
            "name" : "LeftTail_012",
            "rotation" : [
                0.012885896489024162,
                0.003003365360200405,
                -0.22726556658744812,
                0.9737429618835449
            ],
            "scale" : [
                0.9999996423721313,
                0.9999997615814209,
                0.9999996423721313
            ],
            "translation" : [
                -0.00013910868437960744,
                138.402587890625,
                0.00572835560888052
            ]
        },
        {
            "name" : "RightTail_end_end_020",
            "rotation" : [
                -2.1396212105173618e-05,
                7.540624835655763e-08,
                -4.1849430999718606e-05,
                1
            ],
            "translation" : [
                9.292960021412e-05,
                1.1202949285507202,
                -4.7511784941889346e-05
            ]
        },
        {
            "children" : [
                24
            ],
            "name" : "RightTail_end_015",
            "rotation" : [
                -1.4156777083940142e-08,
                -2.6391941965187016e-09,
                4.8589688958600163e-05,
                1
            ],
            "scale" : [
                100.00004577636719,
                100.00003051757812,
                99.99998474121094
            ],
            "translation" : [
                0.1282348781824112,
                112.02825927734375,
                -0.26711589097976685
            ]
        },
        {
            "children" : [
                25
            ],
            "name" : "RightTail_014",
            "rotation" : [
                0.012860742397606373,
                -0.003025582293048501,
                0.2320532351732254,
                0.9726133942604065
            ],
            "scale" : [
                0.9999997615814209,
                0.9999998211860657,
                0.9999996423721313
            ],
            "translation" : [
                -0.00013912521535530686,
                138.402587890625,
                0.005727625917643309
            ]
        },
        {
            "children" : [
                23,
                26
            ],
            "name" : "Stomach_011",
            "rotation" : [
                -0.013191673904657364,
                -1.5986232426712377e-07,
                1.8191536810263642e-07,
                0.9999129772186279
            ],
            "scale" : [
                0.010000001639127731,
                0.009999999776482582,
                0.009999997913837433
            ],
            "translation" : [
                -0.29946476221084595,
                0.5026291608810425,
                0.042810987681150436
            ]
        },
        {
            "children" : [
                11,
                16,
                20,
                27
            ],
            "name" : "_rootJoint",
            "rotation" : [
                -0.7071068286895752,
                0,
                0,
                0.7071068286895752
            ]
        },
        {
            "children" : [
                28
            ],
            "name" : "Armature_0"
        },
        {
            "name" : "Node.001",
            "rotation" : [
                0,
                0.7071068286895752,
                -0.7071067094802856,
                -1.0698948926801677e-07
            ],
            "scale" : [
                100,
                99.99998474121094,
                100.00000762939453
            ],
            "translation" : [
                -2829.54150390625,
                512.4222412109375,
                -1424.19677734375
            ]
        }
    ],
    "materials" : [
        {
            "doubleSided" : true,
            "emissiveFactor" : [
                0,
                0,
                0
            ],
            "name" : "Brown",
            "pbrMetallicRoughness" : {
                "baseColorFactor" : [
                    0.42922499775886536,
                    0.2719390094280243,
                    0.11384399980306625,
                    1
                ],
                "metallicFactor" : 0,
                "roughnessFactor" : 0.823941707611084
            }
        },
        {
            "doubleSided" : true,
            "emissiveFactor" : [
                0,
                0,
                0
            ],
            "name" : "DarkBrown",
            "pbrMetallicRoughness" : {
                "baseColorFactor" : [
                    0.25979799032211304,
                    0.12067899852991104,
                    0.03521620109677315,
                    1
                ],
                "metallicFactor" : 0,
                "roughnessFactor" : 0.823941707611084
            }
        }
    ],
    "meshes" : [
        {
            "name" : "Mountain_Brown_0",
            "primitives" : [
                {
                    "attributes" : {
                        "POSITION" : 0,
                        "NORMAL" : 1
                    },
                    "indices" : 2,
                    "material" : 0
                }
            ]
        },
        {
            "name" : "Mountain_DarkBrown_0",
            "primitives" : [
                {
                    "attributes" : {
                        "POSITION" : 3,
                        "NORMAL" : 4
                    },
                    "indices" : 5,
                    "material" : 1
                }
            ]
        }
    ],
    "accessors" : [
        {
            "bufferView" : 0,
            "componentType" : 5126,
            "count" : 773,
            "max" : [
                6.875,
                5.8740081787109375,
                0.625
            ],
            "min" : [
                -8.75,
                1.8244537115097046,
                -8.125
            ],
            "type" : "VEC3"
        },
        {
            "bufferView" : 1,
            "componentType" : 5126,
            "count" : 773,
            "type" : "VEC3"
        },
        {
            "bufferView" : 2,
            "componentType" : 5123,
            "count" : 999,
            "type" : "SCALAR"
        },
        {
            "bufferView" : 3,
            "componentType" : 5126,
            "count" : 1646,
            "max" : [
                8.75,
                5.620006561279297,
                3.125
            ],
            "min" : [
                -10,
                0,
                -10
            ],
            "type" : "VEC3"
        },
        {
            "bufferView" : 4,
            "componentType" : 5126,
            "count" : 1646,
            "type" : "VEC3"
        },
        {
            "bufferView" : 5,
            "componentType" : 5123,
            "count" : 2073,
            "type" : "SCALAR"
        }
    ],
    "bufferViews" : [
        {
            "buffer" : 0,
            "byteLength" : 9276,
            "byteOffset" : 0
        },
        {
            "buffer" : 0,
            "byteLength" : 9276,
            "byteOffset" : 9276
        },
        {
            "buffer" : 0,
            "byteLength" : 1998,
            "byteOffset" : 18552
        },
        {
            "buffer" : 0,
            "byteLength" : 19752,
            "byteOffset" : 20552
        },
        {
            "buffer" : 0,
            "byteLength" : 19752,
            "byteOffset" : 40304
        },
        {
            "buffer" : 0,
            "byteLength" : 4146,
            "byteOffset" : 60056
        }
    ],
    "buffers" : [
        {
            "byteLength" : 64204,
            "uri" : "untitled.bin"
        }
    ]
}
